<svg version="1.1" id="Layer_1" xmlns="http://www.w3.org/2000/svg" xmlns:xlink="http://www.w3.org/1999/xlink" x="0px"
     y="0px"
     viewBox="-894 311 200 647.7" style="enable-background:new -894 311 200 647.7;" xml:space="preserve">
<style type="text/css">
	.st0{fill:#3C1B12;}
</style>
  <title>beer</title>
  <g id="Layer_2">
	<g id="Layer_2-2">
		<path class="st0" d="M-696.6,614.1h-0.5v-9.2c0-3-0.6-6-1.9-8.7l-5.8-14.3c-3.4-7.1-7.4-14-11.9-20.4l-12.9-18.2
			c-4.9-6.9-7.5-15.2-7.5-23.6v-34.3c0-2.3-0.2-4.5-0.7-6.8l-20.9-107.3c0-0.1,0-0.2,0-0.2V364c0-0.4,0.2-0.8,0.6-1l4.2-2.1
			c0.9-0.4,1.5-1.3,1.5-2.2c0.4-6.8-0.7-13.6-3.3-20c-3.7-8.7-8.9-12-11.7-13.2c-0.2,0-0.3-0.2-0.3-0.4s0.2-0.3,0.4-0.3h7.6
			c1.4,0,2.5-1.1,2.5-2.5V318c0-1.4-1.1-2.4-2.2-3.3c-1.9-1.7-6.2-3.1-7.9-3.5c-0.5-0.1-1-0.2-1.4-0.2h-50.9c-0.5,0-1,0.1-1.4,0.2
			c-1.7,0.5-5.9,1.8-7.9,3.5c-1.1,0.9-2.2,1.9-2.2,3.3v4.4c0,1.4,1.1,2.5,2.5,2.5h7.6c0.2,0,0.4,0.1,0.4,0.3c0,0.2-0.1,0.3-0.2,0.4
			c-2.8,1.2-8,4.5-11.7,13.2c-2.6,6.3-3.7,13.2-3.2,20c0.1,1,0.7,1.8,1.5,2.2l4.2,2.1c0.4,0.2,0.6,0.6,0.6,1v6.9c0,0.1,0,0.2,0,0.2
			l-20.9,107.3c-0.4,2.2-0.7,4.5-0.7,6.8v34.3c0,8.5-2.6,16.7-7.5,23.6l-12.9,18.2c-4.5,6.5-8.5,13.3-11.9,20.5l-5.8,14.3
			c-1.2,2.8-1.9,5.8-1.9,8.8v9.2h-0.5c-1.4,0-2.6,1.2-2.6,2.6c0,0,0,0,0,0v19.7c0,1.3,1.1,2.4,2.4,2.4h0.7v250.8h-1.5v26.4
			c0,0.9,0.1,1.7,0.3,2.6l5,20c0.6,2.3,1.5,4.4,2.8,6.3l2.4,3.6c1.2,1.7,3,2.9,5.1,3.2c0,0,22.9,4.3,36.8,5.6
			c16.9,1.5,46.2,1.5,46.2,1.5s29.2,0,46.2-1.5c13.8-1.3,36.8-5.7,36.8-5.7c2.1-0.3,3.9-1.5,5.1-3.2l2.4-3.6
			c1.3-1.9,2.2-4.1,2.8-6.3l5-20c0.2-0.8,0.3-1.7,0.3-2.6v-26.3h-1.5V638.7h0.7c1.3,0,2.4-1.1,2.4-2.4v-19.7
			C-694,615.3-695.2,614.1-696.6,614.1L-696.6,614.1z"/>
	</g>
</g>
</svg>
