<svg version="1.1" id="Layer_1" xmlns="http://www.w3.org/2000/svg" xmlns:xlink="http://www.w3.org/1999/xlink" x="0px"
     y="0px"
     viewBox="-888 733 200 647.7" style="enable-background:new -888 733 200 647.7;" xml:space="preserve">
<style type="text/css">
	.st0{fill:#DBDBDB;}
</style>
  <title>can</title>
  <g id="Layer_2">
	<g id="Layer_1-2">
		<g id="Layer_2-2">
			<g id="Layer_1-2-2">
				<path class="st0" d="M-709.5,746.8c0-0.2,0.1-0.3,0.3-0.3c0,0,0,0,0,0h1.1c0.9,0,1.6-0.9,1.6-1.9l0,0v-8.2c0-1-0.6-1.7-1.4-1.8
					c0,0-54.2-1.9-80.1-1.5c-25.9-0.3-80,1.6-80,1.6c-0.8,0-1.5,0.8-1.5,1.8v8.2c0,1.1,0.7,1.9,1.6,1.9h1.1c0.1,0,0.3,0.1,0.3,0.3
					c0,0,0,0,0,0l0,0c-0.4,12.2-21.5,45.6-21.5,53.1v546.7c0,1,0.5,1.9,1.2,2.5c9.8,8.1,15.3,14.6,17,24.2c0.3,0.7,0.8,1.2,1.4,1.5
					c6.3,3.6,25,5.9,80.2,5.9h0.5c55.3,0,73.9-2.4,80.2-5.9c0.6-0.2,1.1-0.7,1.4-1.4c1.7-9.6,7.1-16.1,17-24.2
					c0.7-0.5,1.1-1.5,1.2-2.5V800C-688,792.4-709.2,759-709.5,746.8z"/>
			</g>
		</g>
	</g>
</g>
</svg>
