<svg xmlns="http://www.w3.org/2000/svg" viewBox="0 0 130 459.99">
  <defs>
    <style>
      .cls-1 {
        fill: #3c1b12;
      }
    </style>
  </defs>
  <title>beer</title>
  <g id="Layer_2" data-name="Layer 2">
    <g id="Layer_2-2" data-name="Layer 2">
      <path class="cls-1" d="M128.31,197H128v-6a13.83,13.83,0,0,0-1.22-5.68L123,176a94.89,94.89,0,0,0-7.75-13.29l-8.36-11.81A26.58,26.58,0,0,1,102,135.54V113.23a23.13,23.13,0,0,0-.43-4.41L88,39.08a.83.83,0,0,1,0-.16V34.44a.72.72,0,0,1,.4-.64l2.73-1.37a1.75,1.75,0,0,0,1-1.45A29.17,29.17,0,0,0,90,18c-2.42-5.66-5.77-7.79-7.63-8.57A.22.22,0,0,1,82.47,9h4.91A1.63,1.63,0,0,0,89,7.38V4.54c0-.93-.71-1.53-1.41-2.14-1.25-1.1-4-2-5.11-2.27A3.44,3.44,0,0,0,81.54,0H48.46a3.44,3.44,0,0,0-.94.13c-1.11.31-3.86,1.17-5.11,2.27C41.71,3,41,3.61,41,4.54V7.38A1.63,1.63,0,0,0,42.63,9h4.91a.22.22,0,0,1,.09.43c-1.85.78-5.2,2.91-7.63,8.57a29.17,29.17,0,0,0-2.1,13,1.75,1.75,0,0,0,1,1.45L41.6,33.8a.72.72,0,0,1,.4.64v4.48a.83.83,0,0,1,0,.16L28.43,108.81a23.13,23.13,0,0,0-.43,4.41v22.31a26.58,26.58,0,0,1-4.89,15.36l-8.36,11.81A94.89,94.89,0,0,0,7,176l-3.78,9.29A13.83,13.83,0,0,0,2,191v6H1.69A1.69,1.69,0,0,0,0,198.69v12.78A1.53,1.53,0,0,0,1.53,213H2V415H1v17.15a6.88,6.88,0,0,0,.21,1.67l3.24,13a13.21,13.21,0,0,0,1.82,4.12l1.55,2.32a4.84,4.84,0,0,0,3.29,2.1S26,458.18,35,459c11,1,30,1,30,1s19,0,30-1c9-.82,23.89-3.68,23.89-3.68a4.84,4.84,0,0,0,3.29-2.1l1.55-2.32a13.21,13.21,0,0,0,1.82-4.12l3.24-13a6.88,6.88,0,0,0,.21-1.67V415h-1V213h.47a1.53,1.53,0,0,0,1.53-1.53V198.69A1.69,1.69,0,0,0,128.31,197Z"/>
    </g>
  </g>
</svg>
