<svg xmlns="http://www.w3.org/2000/svg" viewBox="0 0 142.67 385">
  <defs>
    <style>
      .cls-1 {
        fill: #dbdbdb;
      }
    </style>
  </defs>
  <title>can</title>
  <g id="Layer_2" data-name="Layer 2">
    <g id="Layer_1-2" data-name="Layer 1">
      <g id="Layer_2-2" data-name="Layer 2">
        <g id="Layer_1-2-2" data-name="Layer 1-2">
          <path class="cls-1" d="M127.37,8.21a.19.19,0,0,1,.19-.2h.79a1.14,1.14,0,0,0,1.14-1.14h0V2a1.08,1.08,0,0,0-1-1.08S89.83-.18,71.33,0C52.83-.18,14.24.93,14.24.93A1.08,1.08,0,0,0,13.18,2V6.86A1.14,1.14,0,0,0,14.32,8h.81a.19.19,0,0,1,.2.19s0,0,0,0C15.05,15.45,0,35.28,0,39.76v325a1.81,1.81,0,0,0,.83,1.48c7,4.81,10.9,8.69,12.1,14.38a1.69,1.69,0,0,0,1,.87c4.5,2.13,17.83,3.5,57.23,3.53h.39c39.44,0,52.76-1.4,57.23-3.53a1.69,1.69,0,0,0,1-.84c1.19-5.69,5.06-9.57,12.1-14.38a1.81,1.81,0,0,0,.83-1.48v-325C142.7,35.28,127.61,15.45,127.37,8.21Z"/>
        </g>
      </g>
    </g>
  </g>
</svg>
